<svg xmlns:dc="http://purl.org/dc/elements/1.1/" xmlns:cc="http://creativecommons.org/ns#" xmlns:rdf="http://www.w3.org/1999/02/22-rdf-syntax-ns#" xmlns:svg="http://www.w3.org/2000/svg" xmlns="http://www.w3.org/2000/svg" viewBox="0 0 630 650" height="130" width="130" xml:space="preserve" version="1.1" id="svg2"><metadata id="metadata8"><rdf:rdf><cc:work rdf:about=""><dc:format>image/svg+xml</dc:format><dc:type rdf:resource="http://purl.org/dc/dcmitype/StillImage"></dc:type></cc:work></rdf:rdf></metadata><defs id="defs6"><clipPath id="clipPath16" clipPathUnits="userSpaceOnUse"><path id="path18" d="M 0,520 504,520 504,0 0,0 0,520 Z" style="fill: rgb(255, 255, 255);"></path></clipPath></defs><g transform="matrix(1.25,0,0,-1.25,0,650)" id="g10"><g id="g12"><g clip-path="url(#clipPath16)" id="g14"><g transform="translate(164.5093,23.2439)" id="g20"><path id="path22" style="fill: rgb(255, 255, 255); fill-opacity: 1; fill-rule: nonzero; stroke: none;" d="m 0,0 3.37,0 c 2.216,0 3.599,0.732 4.195,2.502 0.243,0.678 0.377,1.57 0.377,4.437 0,2.856 -0.134,3.749 -0.377,4.418 -0.596,1.768 -1.979,2.508 -4.195,2.508 l -3.37,0 c -0.107,0 -0.168,-0.047 -0.168,-0.162 l 0,-13.543 C -0.168,0.066 -0.107,0 0,0 m -2.569,15.838 c 0,0.152 0.117,0.264 0.266,0.264 l 6.197,0 c 3.093,0 5.15,-1.323 5.981,-3.913 0.324,-0.994 0.486,-1.988 0.486,-5.25 0,-3.261 -0.162,-4.265 -0.486,-5.265 C 9.044,-0.912 6.987,-2.229 3.894,-2.229 l -6.197,0 c -0.149,0 -0.266,0.11 -0.266,0.262 l 0,17.805 z"></path></g><g transform="translate(179.6558,21.0154)" id="g24"><path id="path26" style="fill: rgb(255, 255, 255); fill-opacity: 1; fill-rule: nonzero; stroke: none;" d="m 0,0 c -0.164,0 -0.263,0.109 -0.263,0.262 l 0,12.379 c 0,0.154 0.099,0.275 0.263,0.275 l 1.743,0 c 0.16,0 0.263,-0.121 0.263,-0.275 l 0,-1.315 0.018,0 c 0.575,1.104 1.707,1.883 3.44,1.883 1.026,0 1.987,-0.385 2.637,-0.971 0.137,-0.131 0.167,-0.242 0.069,-0.386 L 7.154,10.549 C 7.06,10.412 6.908,10.375 6.794,10.484 6.182,10.871 5.543,11.107 4.791,11.107 2.819,11.107 2.006,9.557 2.006,7.32 l 0,-7.058 C 2.006,0.109 1.903,0 1.743,0 L 0,0 Z"></path></g><g transform="translate(191.4155,21.0154)" id="g28"><path id="path30" style="fill: rgb(255, 255, 255); fill-opacity: 1; fill-rule: nonzero; stroke: none;" d="m 0,0 c -0.16,0 -0.288,0.109 -0.288,0.262 l 0,12.379 c 0,0.154 0.128,0.275 0.288,0.275 l 1.718,0 c 0.16,0 0.281,-0.121 0.281,-0.275 l 0,-12.379 C 1.999,0.109 1.878,0 1.718,0 L 0,0 Z m -0.068,15.816 c -0.148,0 -0.274,0.116 -0.274,0.278 l 0,1.972 c 0,0.153 0.126,0.264 0.274,0.264 l 1.854,0 c 0.16,0 0.266,-0.111 0.266,-0.264 l 0,-1.972 c 0,-0.162 -0.106,-0.278 -0.266,-0.278 l -1.854,0 z"></path></g><g transform="translate(206.7871,24.785)" id="g32"><path id="path34" style="fill: rgb(255, 255, 255); fill-opacity: 1; fill-rule: nonzero; stroke: none;" d="m 0,0 c 0.208,0.678 0.289,1.519 0.289,2.693 0,1.161 -0.081,2.004 -0.289,2.705 -0.43,1.262 -1.421,1.94 -2.839,1.94 -1.437,0 -2.443,-0.641 -2.858,-1.94 -0.228,-0.646 -0.296,-1.416 -0.296,-2.705 0,-1.295 0.068,-2.082 0.296,-2.693 0.415,-1.293 1.421,-1.977 2.858,-1.977 1.418,0 2.409,0.7 2.839,1.977 m -7.999,-8.637 c -0.163,0 -0.269,0.119 -0.269,0.274 l 0,17.234 c 0,0.154 0.106,0.275 0.269,0.275 l 1.737,0 c 0.155,0 0.269,-0.121 0.269,-0.275 l 0,-1.217 0.03,0 c 0.608,1.024 1.715,1.785 3.656,1.785 2.254,0 3.819,-1.062 4.465,-3.107 0.345,-1.025 0.459,-2.043 0.459,-3.639 0,-1.615 -0.114,-2.644 -0.459,-3.677 -0.646,-2.037 -2.211,-3.09 -4.465,-3.09 -1.941,0 -3.048,0.791 -3.656,1.806 l -0.03,0 0,-6.095 c 0,-0.155 -0.114,-0.274 -0.269,-0.274 l -1.737,0 z"></path></g><g transform="translate(213.6758,23.8689)" id="g36"><path id="path38" style="fill: rgb(255, 255, 255); fill-opacity: 1; fill-rule: nonzero; stroke: none;" d="m 0,0 1.881,0 c 0.171,0 0.266,-0.115 0.266,-0.268 l 0,-2.507 c 0,-0.276 -0.027,-0.411 -0.148,-0.592 L 0.316,-5.578 c -0.096,-0.145 -0.22,-0.207 -0.342,-0.207 -0.141,0 -0.243,0.119 -0.243,0.256 l 0,5.261 C -0.269,-0.115 -0.167,0 0,0"></path></g><g transform="translate(234.7451,24.785)" id="g40"><path id="path42" style="fill: rgb(255, 255, 255); fill-opacity: 1; fill-rule: nonzero; stroke: none;" d="M 0,0 C 0.219,0.611 0.307,1.398 0.307,2.693 0.307,3.982 0.219,4.752 0,5.398 -0.43,6.697 -1.425,7.338 -2.872,7.338 -4.286,7.338 -5.271,6.66 -5.7,5.398 -5.917,4.697 -5.985,3.854 -5.985,2.693 -5.985,1.519 -5.917,0.678 -5.7,0 c 0.429,-1.277 1.414,-1.977 2.828,-1.977 1.447,0 2.442,0.684 2.872,1.977 m 0.581,-3.77 c -0.18,0 -0.274,0.11 -0.274,0.262 l 0,1.24 -0.027,0 c -0.649,-1.015 -1.739,-1.806 -3.678,-1.806 -2.241,0 -3.807,1.053 -4.466,3.09 -0.342,1.033 -0.456,2.062 -0.456,3.677 0,1.596 0.114,2.614 0.456,3.639 0.659,2.045 2.225,3.107 4.466,3.107 1.939,0 3.029,-0.761 3.678,-1.785 l 0.027,0 0,6.643 c 0,0.152 0.094,0.264 0.274,0.264 l 1.705,0 c 0.168,0 0.289,-0.112 0.289,-0.264 l 0,-17.805 C 2.575,-3.66 2.454,-3.77 2.286,-3.77 l -1.705,0 z"></path></g><g transform="translate(242.6978,21.0154)" id="g44"><path id="path46" style="fill: rgb(255, 255, 255); fill-opacity: 1; fill-rule: nonzero; stroke: none;" d="m 0,0 c -0.175,0 -0.281,0.109 -0.281,0.262 l 0,12.379 c 0,0.154 0.106,0.275 0.281,0.275 l 1.725,0 c 0.157,0 0.269,-0.121 0.269,-0.275 l 0,-1.315 0.027,0 c 0.551,1.104 1.703,1.883 3.428,1.883 1.029,0 1.996,-0.385 2.65,-0.971 0.142,-0.131 0.142,-0.242 0.051,-0.386 L 7.156,10.549 C 7.05,10.412 6.908,10.375 6.779,10.484 6.168,10.871 5.533,11.107 4.773,11.107 2.8,11.107 1.994,9.557 1.994,7.32 l 0,-7.058 C 1.994,0.109 1.882,0 1.725,0 L 0,0 Z"></path></g><g transform="translate(254.4316,21.0154)" id="g48"><path id="path50" style="fill: rgb(255, 255, 255); fill-opacity: 1; fill-rule: nonzero; stroke: none;" d="m 0,0 c -0.148,0 -0.261,0.109 -0.261,0.262 l 0,12.379 c 0,0.154 0.113,0.275 0.261,0.275 l 1.74,0 c 0.16,0 0.275,-0.121 0.275,-0.275 l 0,-12.379 C 2.015,0.109 1.9,0 1.74,0 L 0,0 Z m -0.042,15.816 c -0.158,0 -0.273,0.116 -0.273,0.278 l 0,1.972 c 0,0.153 0.115,0.264 0.273,0.264 l 1.836,0 c 0.152,0 0.266,-0.111 0.266,-0.264 l 0,-1.972 c 0,-0.162 -0.114,-0.278 -0.266,-0.278 l -1.836,0 z"></path></g><g transform="translate(269.8174,24.785)" id="g52"><path id="path54" style="fill: rgb(255, 255, 255); fill-opacity: 1; fill-rule: nonzero; stroke: none;" d="M 0,0 C 0.209,0.678 0.288,1.519 0.288,2.693 0.288,3.854 0.209,4.697 0,5.398 -0.437,6.66 -1.409,7.338 -2.846,7.338 -4.274,7.338 -5.28,6.697 -5.7,5.398 -5.919,4.752 -6.007,3.982 -6.007,2.693 -6.007,1.398 -5.919,0.611 -5.7,0 c 0.42,-1.293 1.426,-1.977 2.854,-1.977 1.437,0 2.409,0.7 2.846,1.977 m -7.995,-8.637 c -0.167,0 -0.274,0.119 -0.274,0.274 l 0,17.234 c 0,0.154 0.107,0.275 0.274,0.275 l 1.718,0 c 0.175,0 0.27,-0.121 0.27,-0.275 l 0,-1.217 0.033,0 c 0.613,1.024 1.718,1.785 3.66,1.785 2.249,0 3.823,-1.062 4.477,-3.107 0.329,-1.025 0.448,-2.043 0.448,-3.639 0,-1.615 -0.119,-2.644 -0.448,-3.677 -0.654,-2.037 -2.228,-3.09 -4.477,-3.09 -1.942,0 -3.047,0.791 -3.66,1.806 l -0.033,0 0,-6.095 c 0,-0.155 -0.095,-0.274 -0.27,-0.274 l -1.718,0 z"></path></g><g transform="translate(276.707,23.8689)" id="g56"><path id="path58" style="fill: rgb(255, 255, 255); fill-opacity: 1; fill-rule: nonzero; stroke: none;" d="m 0,0 1.893,0 c 0.15,0 0.281,-0.115 0.281,-0.268 l 0,-2.507 c 0,-0.276 -0.037,-0.411 -0.185,-0.592 L 0.325,-5.578 c -0.104,-0.145 -0.211,-0.207 -0.366,-0.207 -0.115,0 -0.225,0.119 -0.225,0.256 l 0,5.261 C -0.266,-0.115 -0.156,0 0,0"></path></g><g transform="translate(297.7754,24.785)" id="g60"><path id="path62" style="fill: rgb(255, 255, 255); fill-opacity: 1; fill-rule: nonzero; stroke: none;" d="m 0,0 c 0.221,0.611 0.298,1.398 0.298,2.693 0,1.289 -0.077,2.059 -0.298,2.705 -0.437,1.299 -1.445,1.94 -2.863,1.94 -1.426,0 -2.419,-0.678 -2.838,-1.94 -0.218,-0.701 -0.297,-1.544 -0.297,-2.705 0,-1.174 0.079,-2.015 0.297,-2.693 0.419,-1.277 1.412,-1.977 2.838,-1.977 1.418,0 2.426,0.684 2.863,1.977 m 0.56,-3.77 c -0.164,0 -0.262,0.11 -0.262,0.262 l 0,1.24 -0.025,0 c -0.63,-1.015 -1.724,-1.806 -3.677,-1.806 -2.252,0 -3.811,1.053 -4.466,3.09 -0.333,1.033 -0.455,2.062 -0.455,3.677 0,1.596 0.122,2.614 0.455,3.639 0.655,2.045 2.214,3.107 4.466,3.107 1.953,0 3.047,-0.761 3.677,-1.785 l 0.025,0 0,6.643 c 0,0.152 0.098,0.264 0.262,0.264 l 1.745,0 c 0.157,0 0.254,-0.112 0.254,-0.264 l 0,-17.805 C 2.559,-3.66 2.462,-3.77 2.305,-3.77 l -1.745,0 z"></path></g><g transform="translate(305.7168,21.0154)" id="g64"><path id="path66" style="fill: rgb(255, 255, 255); fill-opacity: 1; fill-rule: nonzero; stroke: none;" d="m 0,0 c -0.146,0 -0.269,0.109 -0.269,0.262 l 0,12.379 c 0,0.154 0.123,0.275 0.269,0.275 l 1.729,0 c 0.164,0 0.278,-0.121 0.278,-0.275 l 0,-1.315 0.019,0 c 0.569,1.104 1.688,1.883 3.422,1.883 1.033,0 2.006,-0.385 2.656,-0.971 0.131,-0.131 0.164,-0.242 0.058,-0.386 L 7.166,10.549 C 7.042,10.412 6.921,10.375 6.771,10.484 6.184,10.871 5.534,11.107 4.773,11.107 2.832,11.107 2.007,9.557 2.007,7.32 l 0,-7.058 C 2.007,0.109 1.893,0 1.729,0 L 0,0 Z"></path></g><g transform="translate(317.4707,21.0154)" id="g68"><path id="path70" style="fill: rgb(255, 255, 255); fill-opacity: 1; fill-rule: nonzero; stroke: none;" d="m 0,0 c -0.167,0 -0.281,0.109 -0.281,0.262 l 0,12.379 c 0,0.154 0.114,0.275 0.281,0.275 l 1.724,0 c 0.158,0 0.274,-0.121 0.274,-0.275 l 0,-12.379 C 1.998,0.109 1.882,0 1.724,0 L 0,0 Z m -0.051,15.816 c -0.162,0 -0.264,0.116 -0.264,0.278 l 0,1.972 c 0,0.153 0.102,0.264 0.264,0.264 l 1.836,0 c 0.178,0 0.274,-0.111 0.274,-0.264 l 0,-1.972 c 0,-0.162 -0.096,-0.278 -0.274,-0.278 l -1.836,0 z"></path></g><g transform="translate(332.8301,24.785)" id="g72"><path id="path74" style="fill: rgb(255, 255, 255); fill-opacity: 1; fill-rule: nonzero; stroke: none;" d="m 0,0 c 0.221,0.678 0.313,1.519 0.313,2.693 0,1.161 -0.092,2.004 -0.313,2.705 -0.422,1.262 -1.41,1.94 -2.819,1.94 -1.429,0 -2.445,-0.641 -2.882,-1.94 -0.217,-0.646 -0.287,-1.416 -0.287,-2.705 0,-1.295 0.07,-2.082 0.287,-2.693 0.437,-1.293 1.453,-1.977 2.882,-1.977 1.409,0 2.397,0.7 2.819,1.977 m -7.985,-8.637 c -0.167,0 -0.265,0.119 -0.265,0.274 l 0,17.234 c 0,0.154 0.098,0.275 0.265,0.275 l 1.712,0 c 0.186,0 0.285,-0.121 0.285,-0.275 l 0,-1.217 0.024,0 c 0.621,1.024 1.732,1.785 3.68,1.785 2.24,0 3.815,-1.062 4.456,-3.107 0.349,-1.025 0.445,-2.043 0.445,-3.639 0,-1.615 -0.096,-2.644 -0.445,-3.677 -0.641,-2.037 -2.216,-3.09 -4.456,-3.09 -1.948,0 -3.059,0.791 -3.68,1.806 l -0.024,0 0,-6.095 c 0,-0.155 -0.099,-0.274 -0.285,-0.274 l -1.712,0 z"></path></g><g transform="translate(339.4668,23.6013)" id="g76"><path id="path78" style="fill: rgb(255, 255, 255); fill-opacity: 1; fill-rule: nonzero; stroke: none;" d="m 0,0 c 0,0.152 0.099,0.268 0.263,0.268 l 2.048,0 C 2.486,0.268 2.593,0.152 2.593,0 l 0,-2.324 c 0,-0.153 -0.107,-0.262 -0.282,-0.262 l -2.048,0 C 0.099,-2.586 0,-2.477 0,-2.324 L 0,0 Z"></path></g><path id="path80" style="fill: rgb(255, 255, 255); fill-opacity: 1; fill-rule: nonzero; stroke: none;" d="m 258.589,361.519 -13.186,0 0,2.147 13.186,0 0,-2.147 z"></path><g transform="translate(270.8594,486.3991)" id="g82"><path id="path84" style="fill: rgb(255, 255, 255); fill-opacity: 1; fill-rule: nonzero; stroke: none;" d="m 0,0 c 0,-0.78 -0.597,-1.35 -1.364,-1.35 l -34.975,0 c -0.757,0 -1.375,0.57 -1.375,1.35 0,0.076 0,0.16 0.025,0.228 0.061,0.236 0.203,0.475 0.324,0.687 3.476,6.67 10.472,11.199 18.508,11.199 8.042,0 15.022,-4.529 18.499,-11.199 C -0.209,0.703 -0.075,0.464 -0.02,0.228 0,0.16 0,0.076 0,0"></path></g><g transform="translate(254.1162,501.7205)" id="g86"><path id="path88" style="fill: rgb(255, 255, 255); fill-opacity: 1; fill-rule: nonzero; stroke: none;" d="m 0,0 c 0,-1.186 -0.946,-2.113 -2.113,-2.113 -1.176,0 -2.134,0.927 -2.134,2.113 0,1.178 0.958,2.131 2.134,2.131 C -0.946,2.131 0,1.178 0,0"></path></g><g transform="translate(278.0898,438.8015)" id="g90"><path id="path92" style="fill: rgb(255, 255, 255); fill-opacity: 1; fill-rule: nonzero; stroke: none;" d="m 0,0 -9.373,0 0,2.189 2.169,0 c 1.813,0 3.344,1.485 3.344,3.306 l 0,8.682 3.86,0 L 0,0 Z m -10.75,0 -9.389,0 0,2.189 9.389,0 0,-2.189 z m -10.734,0 -9.33,0 0,2.189 9.33,0 0,-2.189 z m -10.667,0 -9.389,0 0,2.189 9.389,0 0,-2.189 z m -10.765,0 -9.387,0 0,14.177 4.019,0 0,-8.682 c 0,-1.821 1.465,-3.306 3.331,-3.306 l 2.037,0 0,-2.189 z m 5.404,8.763 -4.028,0 0,5.414 4.028,0 0,-5.414 z m -9.42,12.205 9.419,0 0,-5.419 -9.419,0 0,5.419 z m 0,13.634 9.419,0 0,-12.235 -9.419,0 0,12.235 z m 20.158,-25.839 -4.04,0 0,5.414 4.04,0 0,-5.414 z m -9.396,12.205 9.396,0 0,-5.419 -9.396,0 0,5.419 z m 0,13.634 9.396,0 0,-12.235 -9.396,0 0,12.235 z m 20.146,-25.839 -4.114,0 0,5.414 4.114,0 0,-5.414 z m -9.385,12.205 9.384,0 0,-5.419 -9.384,0 0,5.419 z m 0,13.634 9.384,0 0,-12.235 -9.384,0 0,12.235 z m 20.177,-25.839 -4.141,0 0,5.414 4.141,0 0,-5.414 z m -9.415,5.414 3.897,0 0,-5.414 -3.897,0 0,5.414 z m -10.762,0 3.924,0 0,-5.414 -3.924,0 0,5.414 z m -10.761,0 4.019,0 0,-5.414 -4.019,0 0,5.414 z m -10.762,0 4.016,0 0,-5.414 -4.016,0 0,5.414 z m 32.285,6.791 9.415,0 0,-5.419 -9.415,0 0,5.419 z m 0,13.634 9.415,0 0,-12.235 -9.415,0 0,12.235 z M 1.376,0 l 0,15.549 -5.236,0 0,25.174 c 0,1.839 -1.531,3.366 -3.344,3.366 l -37.749,0 c -1.866,0 -3.331,-1.527 -3.331,-3.366 l 0,-25.174 -5.395,0 0,-15.549 -3.105,0 0,-15.61 c 0,-1.893 1.494,-3.356 3.351,-3.356 l 54.695,0 c 1.822,0 3.389,1.463 3.389,3.356 L 4.651,0 1.376,0 Z"></path></g><g transform="translate(259.2773,359.8011)" id="g94"><path id="path96" style="fill: rgb(255, 255, 255); fill-opacity: 1; fill-rule: nonzero; stroke: none;" d="m 0,0 -14.54,0 0,4.373 1.438,0 2.651,24.342 6.366,0 L -1.44,4.373 0,4.373 0,0 Z m 31.896,-100.454 -0.983,9.054 -13.088,120.166 2.084,0 c 0.727,0 1.315,0.516 1.315,1.231 0,0.714 -0.588,1.302 -1.315,1.302 l -2.332,0 -1.698,15.265 c -0.083,0.533 -0.096,1.082 -0.096,1.622 l 0,0.012 c 0,3.542 2.294,6.513 5.441,7.49 l -56.964,0 c 3.096,-0.977 5.432,-3.948 5.432,-7.49 l 0,-0.012 c 0,-0.54 -0.027,-1.089 -0.106,-1.622 l -1.715,-15.265 -2.316,0 c -0.753,0 -1.295,-0.588 -1.295,-1.302 0,-0.715 0.542,-1.231 1.295,-1.231 l 2.082,0 -13.11,-120.166 -0.968,-9.054 -0.106,-0.99 c 0,-2.461 2.014,-4.443 4.464,-4.443 l 69.628,0 c 2.444,0 4.451,1.982 4.451,4.443 l -0.1,0.99 z"></path></g><g transform="translate(47.1328,134.5291)" id="g98"><path id="path100" style="fill: rgb(255, 255, 255); fill-opacity: 1; fill-rule: nonzero; stroke: none;" d="m 0,0 10.561,0 c 11.638,0 16.408,5.555 16.408,17.145 0,14.425 -4.261,18.158 -15.76,18.158 L 0,35.303 0,0 Z m 0,-44.297 12.788,0 0,-3.205 -42.062,0 0,3.205 12.749,0 0,79.6 -12.749,0 0,3.199 43.197,0 c 14.072,0 30.86,-1.658 30.86,-19.555 0,-14.562 -15.372,-19.593 -27.36,-20.869 l 0,-0.258 c 20.125,-3.088 24.627,-13.908 24.627,-34.898 0,-4.526 0.41,-9.654 12.795,-7.344 l 0,-3.08 c -3.617,-0.928 -7.227,-1.553 -10.982,-1.553 -13.018,0 -19.863,6.553 -19.863,19.684 0,10.699 -1.801,18.68 -5.156,21.525 -3.61,3.08 -7.756,4.639 -11.741,4.639 l -7.103,0 0,-41.09 z"></path></g><g transform="translate(147.9673,116.242)" id="g102"><path id="path104" style="fill: rgb(255, 255, 255); fill-opacity: 1; fill-rule: nonzero; stroke: none;" d="M 0,0 25.167,0 13.019,35.959 0,0 Z m -23.749,-29.215 0,3.205 10.454,0 30.84,84.768 4.388,0 29.541,-84.768 10.313,0 0,-3.205 -40.88,0 0,3.205 13.419,0 -7.882,22.801 -27.873,0 -7.975,-22.801 13.143,0 0,-3.205 -27.488,0 z"></path></g><g transform="translate(266.1279,90.2321)" id="g106"><path id="path108" style="fill: rgb(255, 255, 255); fill-opacity: 1; fill-rule: nonzero; stroke: none;" d="m 0,0 12.784,0 0,-3.205 -42.069,0 0,3.205 12.774,0 0,79.6 -12.774,0 0,3.199 42.069,0 0,-3.199 L 0,79.6 0,0 Z"></path></g><g transform="translate(388.9502,85.3221)" id="g110"><path id="path112" style="fill: rgb(255, 255, 255); fill-opacity: 1; fill-rule: nonzero; stroke: none;" d="m 0,0 -3.853,0 -54.718,81.932 0,-77.022 12.645,0 0,-3.205 -29.417,0 0,3.205 12.645,0 0,79.6 -12.645,0 0,3.199 33.014,0 38.212,-56.275 0,53.076 -12.406,0 0,3.199 29.423,0 0,-3.199 L 0,84.51 0,0 Z"></path></g><g transform="translate(434.5576,86.2342)" id="g114"><path id="path116" style="fill: rgb(255, 255, 255); fill-opacity: 1; fill-rule: nonzero; stroke: none;" d="m 0,0 -2.227,0 0,25.627 3.75,0 C 4.226,13.381 11.602,2.07 25.262,2.07 c 10.202,0 19.22,7.479 19.22,18.008 0,11.979 -10.701,14.309 -20.368,17.647 -2.583,0.918 -5.168,1.808 -7.748,2.584 -11.997,3.605 -17.935,12.623 -17.935,24.865 0,13.527 10.071,23.592 23.485,23.592 7.495,0 12.899,-1.821 18.826,-6.469 l 4.906,5.152 2.32,0 0,-24.34 -4.099,0 C 42.431,75.365 34.421,85.525 21.531,85.525 13.263,85.525 5.54,79.469 5.54,70.834 c 0,-9.924 6.821,-10.926 14.836,-13.137 3.223,-0.9 5.796,-1.791 7.984,-2.447 2.584,-0.762 5.807,-1.668 8.522,-2.961 10.85,-5.148 14.702,-13.646 14.702,-25.23 0,-16.235 -10.561,-28.211 -27.215,-28.211 -6.077,0 -13.808,2.443 -18.329,6.56 L 0,0 Z"></path></g></g></g></g></svg>